<?xml version="1.0" encoding="utf-8"?>
<!-- Generator: Adobe Illustrator 24.2.3, SVG Export Plug-In . SVG Version: 6.00 Build 0)  -->
<svg version="1.1" id="Layer_1" xmlns="http://www.w3.org/2000/svg" xmlns:xlink="http://www.w3.org/1999/xlink" x="0px" y="0px"
	 viewBox="0 0 70.7 59" style="enable-background:new 0 0 70.7 59;" xml:space="preserve">
<style type="text/css">
	.st0{fill:#FFFFFF;}
</style>
<path d="M30.7,49.2v4.4l4-2.3L30.7,49.2z"/>
<path d="M38.5,49.2v4.4l-4-2.3L38.5,49.2z"/>
<path class="st0" d="M46.3,21L46,37.5c0,0-2.1,2.5-10.2,2.5c-8,0-9.2-2.9-9.2-2.9L26.3,22c-0.4,0.1,0.4,0,0,0
	c-4.3,0.1-8.5-3.4-8.5-7.6s3.5-7.7,7.8-7.7c1.1,0,2.2,0.2,3.1,0.7c1.3-2.5,4-4.3,7-4.3c2.9,0,5.3,1.6,6.7,4c1.3-1,2.8-1.4,4.6-1.4
	c4.3,0,7.8,3.4,7.8,7.7C54.8,17.5,50.7,21,46.3,21C46.1,21,46.7,21,46.3,21z"/>
<path d="M17.6,24.6c0-0.6-0.1-1-0.1-1.3c-0.1-0.6-0.4-1.2-0.9-1.6c-0.5-0.5-1.1-0.7-1.8-0.7c-0.7,0-1.4,0.3-1.9,0.8
	c-0.6-0.5-1.2-0.8-1.9-0.8c-0.7,0-1.3,0.3-1.8,0.7c-0.5,0.4-0.8,0.9-1,1.6c-0.1,0.3-0.1,0.7-0.1,1.3V29c0,0.3,0.2,0.4,0.4,0.4
	C8.9,29.3,9,29.1,9,29v-4.5c0-0.8,0.2-1.5,0.5-2c0.4-0.6,0.9-0.8,1.7-0.8c0.6,0,1,0.2,1.4,0.6c-0.4,0.6-0.5,1.3-0.5,2.2v4.5
	c0,0.2,0.2,0.4,0.4,0.4c0.3,0,0.4-0.2,0.4-0.4v-4.5c0-0.7,0.1-1.2,0.3-1.5c0.2,0.4,0.3,1,0.3,1.7V29c0,0.2,0.2,0.4,0.4,0.4
	c0.3,0,0.4-0.2,0.4-0.4v-4.7c0-0.9-0.2-1.6-0.5-2.1c0.4-0.4,0.8-0.6,1.4-0.6c0.5,0,1,0.2,1.3,0.5c0.4,0.3,0.6,0.7,0.8,1.2
	c0.1,0.3,0.1,0.7,0.1,1.2V29c0,0.2,0.2,0.4,0.4,0.4c0.3,0,0.4-0.2,0.4-0.4l-0.1-0.3L17.6,24.6L17.6,24.6z"/>
<path d="M25.9,22.3c-0.8-0.8-1.8-1.2-3-1.2c-1.2,0-2.2,0.4-3,1.2c-0.8,0.8-1.2,1.8-1.2,3c0,1.2,0.4,2.2,1.3,3c0.9,0.8,1.9,1.2,3,1.2
	c0.9,0,1.7-0.3,2.3-0.7v0.1c0,0.4,0.2,0.5,0.4,0.5c0.2,0,0.4-0.2,0.4-0.5v-0.7c0.8-0.9,1.2-1.8,1.2-2.9
	C27.1,24.1,26.7,23.1,25.9,22.3z M25.2,25.4V28c-0.7,0.6-1.5,0.9-2.3,0.9c-1,0-1.8-0.4-2.5-1.1c-0.7-0.7-1-1.5-1-2.5
	c0-1,0.4-1.8,1.1-2.5c0.7-0.7,1.5-1.1,2.5-1.1c1,0,1.8,0.4,2.5,1.1c0.7,0.7,1.1,1.5,1.1,2.5c0,0.7-0.2,1.3-0.6,1.9v-1.8
	C25.9,24.9,25.2,24.9,25.2,25.4z"/>
<path d="M31.7,29.5c1,0,1.9-0.3,2.7-1c0.2-0.2,0.4-0.3,0.5-0.4h0.1v-0.1c0.1-0.1,0.1-0.1,0.1-0.2c0-0.2-0.1-0.3-0.3-0.3h-0.2
	l-0.1,0.1v0.1c-0.4,0.3-0.8,0.6-1.2,0.8c-0.5,0.2-1,0.4-1.4,0.4c-1,0-1.8-0.4-2.5-1.1c-0.7-0.7-1.1-1.5-1.1-2.5c0-1,0.4-1.8,1.1-2.5
	c0.7-0.7,1.5-1,2.5-1c1,0,1.8,0.4,2.5,1.1l0.2,0.1h0.2l0.1-0.1c0.1-0.1,0.2-0.2,0.2-0.3v-0.1l-0.1-0.1c0,0,0-0.1-0.1-0.1
	c-0.1-0.1-0.1-0.1-0.1-0.1c-0.8-0.8-1.8-1.3-3-1.3c-1.2,0-2.2,0.4-3,1.2c-0.8,0.8-1.2,1.8-1.2,3c0,1.1,0.4,2.1,1.2,3
	C29.6,29.1,30.6,29.5,31.7,29.5z"/>
<path d="M42.1,22.3c-0.8-0.8-1.8-1.2-3-1.2c-1.2,0-2.2,0.4-3,1.2c-0.8,0.8-1.2,1.8-1.2,3c0,1.2,0.4,2.2,1.2,3c0.9,0.8,1.9,1.2,3,1.2
	c0.9,0,1.7-0.3,2.3-0.7v0.1c0,0.4,0.2,0.5,0.4,0.5c0.2,0,0.4-0.2,0.4-0.5v-0.7c0.8-0.9,1.2-1.8,1.2-2.9C43.4,24,43,23.1,42.1,22.3z
	 M41.5,25.4V28c-0.7,0.6-1.5,0.9-2.3,0.9c-1,0-1.8-0.4-2.5-1.1c-0.7-0.7-1-1.5-1-2.5c0-1,0.4-1.8,1.1-2.5c0.7-0.7,1.5-1.1,2.5-1.1
	c1,0,1.8,0.4,2.5,1.1c0.7,0.7,1.1,1.5,1.1,2.5c0,0.7-0.2,1.4-0.6,1.9v-1.8C42.1,24.9,41.5,24.9,41.5,25.4z"/>
<path d="M44.5,29.4c0.3,0,0.4-0.2,0.4-0.4v-3.3c0-0.9,0.1-1.4,0.2-1.7c0.2-0.6,0.5-1,0.9-1.4c0.4-0.4,0.9-0.6,1.4-0.7
	c0.3,0,0.4-0.2,0.4-0.4c0-0.3-0.2-0.3-0.3-0.4h-0.1h-0.1c-0.3,0-0.6,0.1-0.9,0.3c-0.6,0.3-1.1,0.7-1.5,1.3c0-0.3,0-0.7,0-1.2
	c0-0.5-0.7-0.5-0.7,0V29C44.1,29.2,44.3,29.4,44.5,29.4z"/>
<path d="M54.9,22.3c-0.8-0.8-1.8-1.2-3-1.2c-1.2,0-2.2,0.4-3,1.2c-0.8,0.8-1.2,1.8-1.2,3c0,1.2,0.4,2.2,1.2,3c0.9,0.8,1.9,1.2,3,1.2
	c1.2,0,2.2-0.4,3-1.3c0.8-0.9,1.2-1.9,1.2-3C56.2,24.1,55.8,23.1,54.9,22.3z M51.9,21.8c1,0,1.8,0.4,2.5,1.1
	c0.7,0.7,1.1,1.5,1.1,2.5c0,1-0.4,1.9-1.1,2.5c-0.7,0.7-1.5,1-2.5,1c-1,0-1.8-0.4-2.5-1.1c-0.7-0.7-1.1-1.5-1.1-2.5
	c0-1,0.4-1.8,1.1-2.5C50,22.1,50.9,21.8,51.9,21.8z"/>
<path d="M62.8,23.2c-0.1-0.6-0.4-1.1-1-1.6C61.3,21.3,60.7,21,60,21c-0.5,0-1,0.1-1.4,0.4c-0.3,0.2-0.6,0.4-0.8,0.7v-0.5
	c0-0.5-0.7-0.5-0.7,0V29c0,0.3,0.2,0.4,0.4,0.4c0.3,0,0.4-0.2,0.4-0.4v-4.2c0-0.5,0-0.9,0-1.1c0.1-0.6,0.3-1.1,0.7-1.4
	c0.4-0.4,0.9-0.6,1.4-0.6c0.4,0,0.8,0.1,1.1,0.3c0.5,0.3,0.8,0.7,0.9,1.2c0.1,0.3,0.1,0.9,0.1,1.6V29c0,0.2,0.2,0.4,0.4,0.4
	c0.1,0,0.2-0.1,0.3-0.1h0.2v-4.8C62.9,23.9,62.8,23.5,62.8,23.2z"/>
<path d="M24.1,39.1c-0.4,0-0.4,0.2-0.4,0.4c0,0.3,0.2,0.4,0.4,0.4c0.4,0,0.7,0.1,1.1,0.3c0.7,0.4,1,1,1,1.7c0,0.6-0.2,1-0.6,1.4
	c-0.4,0.4-0.9,0.6-1.4,0.6c-0.8,0-1.4-0.4-1.8-1.1c-0.2-0.2-0.3-0.5-0.3-0.9c0-0.3-0.2-0.4-0.4-0.4c-0.3,0-0.4,0.2-0.4,0.4
	c0,0.7,0.3,1.4,0.9,1.8c0.5,0.5,1.2,0.8,1.9,0.8c0.8,0,1.4-0.3,1.9-0.8c0.5-0.5,0.8-1.2,0.8-1.9c0-0.8-0.3-1.4-0.8-1.9
	C25.6,39.4,24.9,39.1,24.1,39.1z"/>
<path d="M24,37c0.7,0,1.1,0.3,1.4,0.8c0.1,0.1,0.2,0.3,0.2,0.5c0,0.3,0.2,0.4,0.4,0.4c0.2,0,0.4-0.2,0.4-0.4c0-0.6-0.3-1.1-0.8-1.4
	c-0.5-0.4-1-0.6-1.6-0.6c-0.6,0-1.2,0.2-1.6,0.7c-0.4,0.5-0.7,1-0.7,1.6c0,0.6,0.2,1.2,0.7,1.6c0.4,0.5,1,0.7,1.6,0.7
	c0.3,0,0.4-0.2,0.4-0.4s-0.2-0.4-0.4-0.4c-0.5,0-0.8-0.2-1.1-0.5c-0.3-0.3-0.5-0.7-0.5-1.2c0-0.5,0.2-0.9,0.5-1.2
	C23.2,37.1,23.6,37,24,37z"/>
<path d="M33,39.7c0-0.6-0.1-1-0.1-1.2c-0.2-0.7-0.5-1.2-0.9-1.5c-0.5-0.5-1-0.7-1.7-0.7c-0.5,0-0.9,0.1-1.3,0.4
	c-0.4,0.2-0.6,0.4-0.8,0.7v-3c0-0.5-0.7-0.5-0.7,0V44c0,0.3,0.2,0.4,0.4,0.4c0.3,0,0.4-0.2,0.4-0.4v-4.1c0-0.3,0-0.6,0.1-0.8
	c0-0.2,0-0.3,0-0.3c0.1-0.6,0.3-1,0.7-1.4c0.4-0.4,0.8-0.5,1.4-0.5c0.4,0,0.8,0.1,1.1,0.3c0.5,0.3,0.7,0.7,0.8,1.1
	c0.1,0.3,0.1,0.8,0.1,1.5V44c0,0.2,0.2,0.4,0.4,0.4c0.3,0,0.4-0.2,0.4-0.4L33,43.7V39.7L33,39.7z"/>
<path d="M40.8,37.5c-0.8-0.8-1.8-1.2-2.9-1.2c-1.1,0-2.1,0.4-2.9,1.2c-0.8,0.8-1.2,1.8-1.2,2.9c0,1.1,0.4,2.1,1.2,2.9
	c0.8,0.8,1.8,1.2,2.9,1.2c1.2,0,2.1-0.4,2.9-1.2c0.8-0.8,1.2-1.8,1.2-2.9C42,39.2,41.6,38.2,40.8,37.5z M35.4,42.8
	c-0.7-0.7-1-1.5-1-2.4s0.4-1.8,1-2.5c0.7-0.7,1.5-1,2.5-1c0.9,0,1.8,0.4,2.4,1c0.7,0.7,1,1.5,1,2.4c0,1-0.4,1.8-1.1,2.5
	c-0.7,0.7-1.5,1-2.4,1C37,43.8,36.1,43.5,35.4,42.8z"/>
<path d="M46.8,36.3c-1.2,0-2.1,0.4-2.9,1.2c-0.8,0.8-1.2,1.8-1.2,2.9c0,1.1,0.4,2.1,1.2,2.9v3.3c0,0.2,0.2,0.4,0.4,0.4
	c0.3,0,0.4-0.2,0.4-0.4v-2.7c0.7,0.5,1.4,0.7,2.2,0.7c1.2,0,2.2-0.4,2.9-1.2c0.8-0.8,1.3-1.7,1.3-2.9s-0.5-2.1-1.3-2.9
	C48.9,36.7,48,36.3,46.8,36.3z M44.2,40c-0.2,0-0.4,0.2-0.4,0.4v1.7c-0.3-0.5-0.5-1.1-0.5-1.8c0-0.9,0.4-1.8,1-2.4
	c0.7-0.7,1.5-1,2.5-1c1,0,1.8,0.4,2.5,1c0.7,0.7,1,1.5,1,2.5c0,1-0.4,1.8-1.1,2.4c-0.7,0.7-1.5,1-2.4,1c-0.9,0-1.6-0.3-2.3-0.9v-2.5
	C44.6,40.1,44.4,40,44.2,40z"/>
</svg>
